<svg width="32" height="32" viewBox="0 0 32 32" fill="none" xmlns="http://www.w3.org/2000/svg">
<rect width="32" height="32" rx="16" fill="#FFFAF6"/>
<path d="M16 26C14.4334 25.8 13.0334 25.4 11.8 24.8C10.5667 24.2 9.52086 23.4167 8.66252 22.45C7.80419 21.4833 7.15002 20.3625 6.70002 19.0875C6.25002 17.8125 6.02502 16.4 6.02502 14.85C7.85836 15.0333 9.40836 15.3667 10.675 15.85C11.9417 16.3333 12.9709 17.0167 13.7625 17.9C14.5542 18.7833 15.125 19.8875 15.475 21.2125C15.825 22.5375 16 24.1333 16 26ZM16 17.575C15.6167 16.9917 15.0959 16.4167 14.4375 15.85C13.7792 15.2833 13.0167 14.7667 12.15 14.3C12.25 13.6 12.4167 12.875 12.65 12.125C12.8834 11.375 13.1667 10.6375 13.5 9.9125C13.8334 9.1875 14.2125 8.49167 14.6375 7.825C15.0625 7.15833 15.5167 6.55 16 6C16.4834 6.55 16.9375 7.15833 17.3625 7.825C17.7875 8.49167 18.1667 9.1875 18.5 9.9125C18.8334 10.6375 19.1167 11.375 19.35 12.125C19.5834 12.875 19.75 13.6 19.85 14.3C18.9834 14.75 18.2209 15.2583 17.5625 15.825C16.9042 16.3917 16.3834 16.975 16 17.575ZM18 25.6C17.9667 24.4333 17.8792 23.3542 17.7375 22.3625C17.5959 21.3708 17.375 20.4333 17.075 19.55C17.8584 18.2 18.9375 17.1 20.3125 16.25C21.6875 15.4 23.575 14.9333 25.975 14.85C25.9917 17.4833 25.2875 19.7542 23.8625 21.6625C22.4375 23.5708 20.4834 24.8833 18 25.6Z" fill="#413D36"/>
</svg>
